<mxfile host="app.diagrams.net" agent="Mozilla/5.0 (Windows NT 10.0; Win64; x64) AppleWebKit/537.36 (KHTML, like Gecko) Chrome/137.0.0.0 Safari/537.36" version="26.2.15">
  <diagram name="Trang-1" id="TtgBpo_KbaNNANrQKjgg">
    <mxGraphModel dx="1316" dy="604" grid="1" gridSize="10" guides="1" tooltips="1" connect="1" arrows="1" fold="1" page="1" pageScale="1" pageWidth="2339" pageHeight="3300" math="0" shadow="0">
      <root>
        <mxCell id="0" />
        <mxCell id="1" parent="0" />
        <mxCell id="ldk-vL9nQiYHC8ubjHRn-79" style="edgeStyle=orthogonalEdgeStyle;rounded=0;orthogonalLoop=1;jettySize=auto;html=1;entryX=1;entryY=0.5;entryDx=0;entryDy=0;exitX=0.5;exitY=0;exitDx=0;exitDy=0;startArrow=ERmandOne;startFill=0;endArrow=ERzeroToMany;endFill=0;" edge="1" parent="1" source="ldk-vL9nQiYHC8ubjHRn-1" target="ldk-vL9nQiYHC8ubjHRn-58">
          <mxGeometry relative="1" as="geometry">
            <Array as="points">
              <mxPoint x="780" y="440" />
              <mxPoint x="1450" y="440" />
              <mxPoint x="1450" y="1165" />
            </Array>
          </mxGeometry>
        </mxCell>
        <mxCell id="ldk-vL9nQiYHC8ubjHRn-81" value="quản lí" style="edgeLabel;html=1;align=center;verticalAlign=middle;resizable=0;points=[];" vertex="1" connectable="0" parent="ldk-vL9nQiYHC8ubjHRn-79">
          <mxGeometry x="0.2191" relative="1" as="geometry">
            <mxPoint as="offset" />
          </mxGeometry>
        </mxCell>
        <mxCell id="ldk-vL9nQiYHC8ubjHRn-1" value="Member" style="swimlane;fontStyle=0;childLayout=stackLayout;horizontal=1;startSize=30;horizontalStack=0;resizeParent=1;resizeParentMax=0;resizeLast=0;collapsible=1;marginBottom=0;whiteSpace=wrap;html=1;fontFamily=Tahoma;" vertex="1" parent="1">
          <mxGeometry x="710" y="530" width="140" height="180" as="geometry" />
        </mxCell>
        <mxCell id="ldk-vL9nQiYHC8ubjHRn-7" value="&lt;b&gt;&lt;span&gt;&lt;u&gt;IDMember&lt;/u&gt;&lt;/span&gt;&lt;/b&gt;" style="text;strokeColor=none;fillColor=none;align=left;verticalAlign=middle;spacingLeft=4;spacingRight=4;overflow=hidden;points=[[0,0.5],[1,0.5]];portConstraint=eastwest;rotatable=0;whiteSpace=wrap;html=1;fontFamily=Tahoma;fontStyle=0" vertex="1" parent="ldk-vL9nQiYHC8ubjHRn-1">
          <mxGeometry y="30" width="140" height="30" as="geometry" />
        </mxCell>
        <mxCell id="ldk-vL9nQiYHC8ubjHRn-10" value="Class" style="text;strokeColor=none;fillColor=none;align=left;verticalAlign=middle;spacingLeft=4;spacingRight=4;overflow=hidden;points=[[0,0.5],[1,0.5]];portConstraint=eastwest;rotatable=0;whiteSpace=wrap;html=1;fontFamily=Tahoma;fontStyle=0" vertex="1" parent="ldk-vL9nQiYHC8ubjHRn-1">
          <mxGeometry y="60" width="140" height="30" as="geometry" />
        </mxCell>
        <mxCell id="ldk-vL9nQiYHC8ubjHRn-25" value="Faculty" style="text;strokeColor=none;fillColor=none;align=left;verticalAlign=middle;spacingLeft=4;spacingRight=4;overflow=hidden;points=[[0,0.5],[1,0.5]];portConstraint=eastwest;rotatable=0;whiteSpace=wrap;html=1;fontFamily=Tahoma;fontStyle=0" vertex="1" parent="ldk-vL9nQiYHC8ubjHRn-1">
          <mxGeometry y="90" width="140" height="30" as="geometry" />
        </mxCell>
        <mxCell id="ldk-vL9nQiYHC8ubjHRn-12" value="Status" style="text;strokeColor=none;fillColor=none;align=left;verticalAlign=middle;spacingLeft=4;spacingRight=4;overflow=hidden;points=[[0,0.5],[1,0.5]];portConstraint=eastwest;rotatable=0;whiteSpace=wrap;html=1;fontFamily=Tahoma;fontStyle=0" vertex="1" parent="ldk-vL9nQiYHC8ubjHRn-1">
          <mxGeometry y="120" width="140" height="30" as="geometry" />
        </mxCell>
        <mxCell id="ldk-vL9nQiYHC8ubjHRn-13" value="Role" style="text;strokeColor=none;fillColor=none;align=left;verticalAlign=middle;spacingLeft=4;spacingRight=4;overflow=hidden;points=[[0,0.5],[1,0.5]];portConstraint=eastwest;rotatable=0;whiteSpace=wrap;html=1;fontFamily=Tahoma;fontStyle=0" vertex="1" parent="ldk-vL9nQiYHC8ubjHRn-1">
          <mxGeometry y="150" width="140" height="30" as="geometry" />
        </mxCell>
        <mxCell id="ldk-vL9nQiYHC8ubjHRn-14" value="Personal_Infor" style="swimlane;fontStyle=0;childLayout=stackLayout;horizontal=1;startSize=30;horizontalStack=0;resizeParent=1;resizeParentMax=0;resizeLast=0;collapsible=1;marginBottom=0;whiteSpace=wrap;html=1;fontFamily=Tahoma;" vertex="1" parent="1">
          <mxGeometry x="370" y="530" width="140" height="210" as="geometry" />
        </mxCell>
        <mxCell id="ldk-vL9nQiYHC8ubjHRn-24" value="&lt;span&gt;&lt;b&gt;&lt;u&gt;IDCard&lt;/u&gt;&lt;/b&gt;&lt;/span&gt;" style="text;strokeColor=none;fillColor=none;align=left;verticalAlign=middle;spacingLeft=4;spacingRight=4;overflow=hidden;points=[[0,0.5],[1,0.5]];portConstraint=eastwest;rotatable=0;whiteSpace=wrap;html=1;fontFamily=Tahoma;fontStyle=0" vertex="1" parent="ldk-vL9nQiYHC8ubjHRn-14">
          <mxGeometry y="30" width="140" height="30" as="geometry" />
        </mxCell>
        <mxCell id="ldk-vL9nQiYHC8ubjHRn-16" value="Fullname" style="text;strokeColor=none;fillColor=none;align=left;verticalAlign=middle;spacingLeft=4;spacingRight=4;overflow=hidden;points=[[0,0.5],[1,0.5]];portConstraint=eastwest;rotatable=0;whiteSpace=wrap;html=1;fontFamily=Tahoma;fontStyle=0" vertex="1" parent="ldk-vL9nQiYHC8ubjHRn-14">
          <mxGeometry y="60" width="140" height="30" as="geometry" />
        </mxCell>
        <mxCell id="ldk-vL9nQiYHC8ubjHRn-17" value="Email" style="text;strokeColor=none;fillColor=none;align=left;verticalAlign=middle;spacingLeft=4;spacingRight=4;overflow=hidden;points=[[0,0.5],[1,0.5]];portConstraint=eastwest;rotatable=0;whiteSpace=wrap;html=1;fontFamily=Tahoma;fontStyle=0" vertex="1" parent="ldk-vL9nQiYHC8ubjHRn-14">
          <mxGeometry y="90" width="140" height="30" as="geometry" />
        </mxCell>
        <mxCell id="ldk-vL9nQiYHC8ubjHRn-18" value="Phone" style="text;strokeColor=none;fillColor=none;align=left;verticalAlign=middle;spacingLeft=4;spacingRight=4;overflow=hidden;points=[[0,0.5],[1,0.5]];portConstraint=eastwest;rotatable=0;whiteSpace=wrap;html=1;fontFamily=Tahoma;fontStyle=0" vertex="1" parent="ldk-vL9nQiYHC8ubjHRn-14">
          <mxGeometry y="120" width="140" height="30" as="geometry" />
        </mxCell>
        <mxCell id="ldk-vL9nQiYHC8ubjHRn-19" value="Dob" style="text;strokeColor=none;fillColor=none;align=left;verticalAlign=middle;spacingLeft=4;spacingRight=4;overflow=hidden;points=[[0,0.5],[1,0.5]];portConstraint=eastwest;rotatable=0;whiteSpace=wrap;html=1;fontFamily=Tahoma;fontStyle=0" vertex="1" parent="ldk-vL9nQiYHC8ubjHRn-14">
          <mxGeometry y="150" width="140" height="30" as="geometry" />
        </mxCell>
        <mxCell id="ldk-vL9nQiYHC8ubjHRn-21" value="Sex" style="text;strokeColor=none;fillColor=none;align=left;verticalAlign=middle;spacingLeft=4;spacingRight=4;overflow=hidden;points=[[0,0.5],[1,0.5]];portConstraint=eastwest;rotatable=0;whiteSpace=wrap;html=1;fontFamily=Tahoma;fontStyle=0" vertex="1" parent="ldk-vL9nQiYHC8ubjHRn-14">
          <mxGeometry y="180" width="140" height="30" as="geometry" />
        </mxCell>
        <mxCell id="ldk-vL9nQiYHC8ubjHRn-26" value="Club" style="swimlane;fontStyle=0;childLayout=stackLayout;horizontal=1;startSize=30;horizontalStack=0;resizeParent=1;resizeParentMax=0;resizeLast=0;collapsible=1;marginBottom=0;whiteSpace=wrap;html=1;fontFamily=Tahoma;" vertex="1" parent="1">
          <mxGeometry x="1260" y="790" width="140" height="180" as="geometry" />
        </mxCell>
        <mxCell id="ldk-vL9nQiYHC8ubjHRn-27" value="&lt;b&gt;&lt;u&gt;IDClub&lt;/u&gt;&lt;/b&gt;" style="text;strokeColor=none;fillColor=none;align=left;verticalAlign=middle;spacingLeft=4;spacingRight=4;overflow=hidden;points=[[0,0.5],[1,0.5]];portConstraint=eastwest;rotatable=0;whiteSpace=wrap;html=1;fontFamily=Tahoma;fontStyle=0" vertex="1" parent="ldk-vL9nQiYHC8ubjHRn-26">
          <mxGeometry y="30" width="140" height="30" as="geometry" />
        </mxCell>
        <mxCell id="ldk-vL9nQiYHC8ubjHRn-28" value="ClubName" style="text;strokeColor=none;fillColor=none;align=left;verticalAlign=middle;spacingLeft=4;spacingRight=4;overflow=hidden;points=[[0,0.5],[1,0.5]];portConstraint=eastwest;rotatable=0;whiteSpace=wrap;html=1;fontFamily=Tahoma;fontStyle=0" vertex="1" parent="ldk-vL9nQiYHC8ubjHRn-26">
          <mxGeometry y="60" width="140" height="30" as="geometry" />
        </mxCell>
        <mxCell id="ldk-vL9nQiYHC8ubjHRn-29" value="Description" style="text;strokeColor=none;fillColor=none;align=left;verticalAlign=middle;spacingLeft=4;spacingRight=4;overflow=hidden;points=[[0,0.5],[1,0.5]];portConstraint=eastwest;rotatable=0;whiteSpace=wrap;html=1;fontFamily=Tahoma;fontStyle=0" vertex="1" parent="ldk-vL9nQiYHC8ubjHRn-26">
          <mxGeometry y="90" width="140" height="30" as="geometry" />
        </mxCell>
        <mxCell id="ldk-vL9nQiYHC8ubjHRn-30" value="DateEstablishment" style="text;strokeColor=none;fillColor=none;align=left;verticalAlign=middle;spacingLeft=4;spacingRight=4;overflow=hidden;points=[[0,0.5],[1,0.5]];portConstraint=eastwest;rotatable=0;whiteSpace=wrap;html=1;fontFamily=Tahoma;fontStyle=0" vertex="1" parent="ldk-vL9nQiYHC8ubjHRn-26">
          <mxGeometry y="120" width="140" height="30" as="geometry" />
        </mxCell>
        <mxCell id="ldk-vL9nQiYHC8ubjHRn-32" value="TypeClub" style="text;strokeColor=none;fillColor=none;align=left;verticalAlign=middle;spacingLeft=4;spacingRight=4;overflow=hidden;points=[[0,0.5],[1,0.5]];portConstraint=eastwest;rotatable=0;whiteSpace=wrap;html=1;fontFamily=Tahoma;fontStyle=0" vertex="1" parent="ldk-vL9nQiYHC8ubjHRn-26">
          <mxGeometry y="150" width="140" height="30" as="geometry" />
        </mxCell>
        <mxCell id="ldk-vL9nQiYHC8ubjHRn-33" value="Event" style="swimlane;fontStyle=0;childLayout=stackLayout;horizontal=1;startSize=30;horizontalStack=0;resizeParent=1;resizeParentMax=0;resizeLast=0;collapsible=1;marginBottom=0;whiteSpace=wrap;html=1;fontFamily=Tahoma;" vertex="1" parent="1">
          <mxGeometry x="880" y="790" width="140" height="210" as="geometry" />
        </mxCell>
        <mxCell id="ldk-vL9nQiYHC8ubjHRn-34" value="&lt;b&gt;&lt;span&gt;&lt;u&gt;IDEvent&lt;/u&gt;&lt;/span&gt;&lt;/b&gt;" style="text;strokeColor=none;fillColor=none;align=left;verticalAlign=middle;spacingLeft=4;spacingRight=4;overflow=hidden;points=[[0,0.5],[1,0.5]];portConstraint=eastwest;rotatable=0;whiteSpace=wrap;html=1;fontFamily=Tahoma;fontStyle=0" vertex="1" parent="ldk-vL9nQiYHC8ubjHRn-33">
          <mxGeometry y="30" width="140" height="30" as="geometry" />
        </mxCell>
        <mxCell id="ldk-vL9nQiYHC8ubjHRn-35" value="Eventname" style="text;strokeColor=none;fillColor=none;align=left;verticalAlign=middle;spacingLeft=4;spacingRight=4;overflow=hidden;points=[[0,0.5],[1,0.5]];portConstraint=eastwest;rotatable=0;whiteSpace=wrap;html=1;fontFamily=Tahoma;fontStyle=0" vertex="1" parent="ldk-vL9nQiYHC8ubjHRn-33">
          <mxGeometry y="60" width="140" height="30" as="geometry" />
        </mxCell>
        <mxCell id="ldk-vL9nQiYHC8ubjHRn-36" value="Description" style="text;strokeColor=none;fillColor=none;align=left;verticalAlign=middle;spacingLeft=4;spacingRight=4;overflow=hidden;points=[[0,0.5],[1,0.5]];portConstraint=eastwest;rotatable=0;whiteSpace=wrap;html=1;fontFamily=Tahoma;fontStyle=0" vertex="1" parent="ldk-vL9nQiYHC8ubjHRn-33">
          <mxGeometry y="90" width="140" height="30" as="geometry" />
        </mxCell>
        <mxCell id="ldk-vL9nQiYHC8ubjHRn-37" value="StartDate" style="text;strokeColor=none;fillColor=none;align=left;verticalAlign=middle;spacingLeft=4;spacingRight=4;overflow=hidden;points=[[0,0.5],[1,0.5]];portConstraint=eastwest;rotatable=0;whiteSpace=wrap;html=1;fontFamily=Tahoma;fontStyle=0" vertex="1" parent="ldk-vL9nQiYHC8ubjHRn-33">
          <mxGeometry y="120" width="140" height="30" as="geometry" />
        </mxCell>
        <mxCell id="ldk-vL9nQiYHC8ubjHRn-38" value="EndDate" style="text;strokeColor=none;fillColor=none;align=left;verticalAlign=middle;spacingLeft=4;spacingRight=4;overflow=hidden;points=[[0,0.5],[1,0.5]];portConstraint=eastwest;rotatable=0;whiteSpace=wrap;html=1;fontFamily=Tahoma;fontStyle=0" vertex="1" parent="ldk-vL9nQiYHC8ubjHRn-33">
          <mxGeometry y="150" width="140" height="30" as="geometry" />
        </mxCell>
        <mxCell id="ldk-vL9nQiYHC8ubjHRn-39" value="Location" style="text;strokeColor=none;fillColor=none;align=left;verticalAlign=middle;spacingLeft=4;spacingRight=4;overflow=hidden;points=[[0,0.5],[1,0.5]];portConstraint=eastwest;rotatable=0;whiteSpace=wrap;html=1;fontFamily=Tahoma;fontStyle=0" vertex="1" parent="ldk-vL9nQiYHC8ubjHRn-33">
          <mxGeometry y="180" width="140" height="30" as="geometry" />
        </mxCell>
        <mxCell id="ldk-vL9nQiYHC8ubjHRn-40" value="EventRegistration" style="swimlane;fontStyle=0;childLayout=stackLayout;horizontal=1;startSize=30;horizontalStack=0;resizeParent=1;resizeParentMax=0;resizeLast=0;collapsible=1;marginBottom=0;whiteSpace=wrap;html=1;fontFamily=Tahoma;" vertex="1" parent="1">
          <mxGeometry x="540" y="790" width="140" height="150" as="geometry" />
        </mxCell>
        <mxCell id="ldk-vL9nQiYHC8ubjHRn-41" value="&lt;b&gt;&lt;span&gt;IDRegisterEvent&lt;/span&gt;&lt;/b&gt;" style="text;strokeColor=none;fillColor=none;align=left;verticalAlign=middle;spacingLeft=4;spacingRight=4;overflow=hidden;points=[[0,0.5],[1,0.5]];portConstraint=eastwest;rotatable=0;whiteSpace=wrap;html=1;fontFamily=Tahoma;fontStyle=0" vertex="1" parent="ldk-vL9nQiYHC8ubjHRn-40">
          <mxGeometry y="30" width="140" height="30" as="geometry" />
        </mxCell>
        <mxCell id="ldk-vL9nQiYHC8ubjHRn-42" value="StatusRegister" style="text;strokeColor=none;fillColor=none;align=left;verticalAlign=middle;spacingLeft=4;spacingRight=4;overflow=hidden;points=[[0,0.5],[1,0.5]];portConstraint=eastwest;rotatable=0;whiteSpace=wrap;html=1;fontFamily=Tahoma;fontStyle=0" vertex="1" parent="ldk-vL9nQiYHC8ubjHRn-40">
          <mxGeometry y="60" width="140" height="30" as="geometry" />
        </mxCell>
        <mxCell id="ldk-vL9nQiYHC8ubjHRn-43" value="RegisteredTime" style="text;strokeColor=none;fillColor=none;align=left;verticalAlign=middle;spacingLeft=4;spacingRight=4;overflow=hidden;points=[[0,0.5],[1,0.5]];portConstraint=eastwest;rotatable=0;whiteSpace=wrap;html=1;fontFamily=Tahoma;fontStyle=0" vertex="1" parent="ldk-vL9nQiYHC8ubjHRn-40">
          <mxGeometry y="90" width="140" height="30" as="geometry" />
        </mxCell>
        <mxCell id="ldk-vL9nQiYHC8ubjHRn-47" value="CheckCHECKIN" style="text;strokeColor=none;fillColor=none;align=left;verticalAlign=middle;spacingLeft=4;spacingRight=4;overflow=hidden;points=[[0,0.5],[1,0.5]];portConstraint=eastwest;rotatable=0;whiteSpace=wrap;html=1;fontFamily=Tahoma;fontStyle=0" vertex="1" parent="ldk-vL9nQiYHC8ubjHRn-40">
          <mxGeometry y="120" width="140" height="30" as="geometry" />
        </mxCell>
        <mxCell id="ldk-vL9nQiYHC8ubjHRn-48" value="&lt;span data-start=&quot;3132&quot; data-end=&quot;3153&quot;&gt;&lt;code data-start=&quot;3134&quot; data-end=&quot;3151&quot; style=&quot;&quot;&gt;ClubApplication&lt;/code&gt;&lt;/span&gt;" style="swimlane;fontStyle=0;childLayout=stackLayout;horizontal=1;startSize=30;horizontalStack=0;resizeParent=1;resizeParentMax=0;resizeLast=0;collapsible=1;marginBottom=0;whiteSpace=wrap;html=1;fontFamily=Tahoma;" vertex="1" parent="1">
          <mxGeometry x="1040" y="530" width="140" height="150" as="geometry" />
        </mxCell>
        <mxCell id="ldk-vL9nQiYHC8ubjHRn-49" value="&lt;span&gt;&lt;b&gt;&lt;u&gt;IDRegisterClub&lt;/u&gt;&lt;/b&gt;&lt;/span&gt;" style="text;strokeColor=none;fillColor=none;align=left;verticalAlign=middle;spacingLeft=4;spacingRight=4;overflow=hidden;points=[[0,0.5],[1,0.5]];portConstraint=eastwest;rotatable=0;whiteSpace=wrap;html=1;fontFamily=Tahoma;fontStyle=0" vertex="1" parent="ldk-vL9nQiYHC8ubjHRn-48">
          <mxGeometry y="30" width="140" height="30" as="geometry" />
        </mxCell>
        <mxCell id="ldk-vL9nQiYHC8ubjHRn-50" value="DescribeWishes" style="text;strokeColor=none;fillColor=none;align=left;verticalAlign=middle;spacingLeft=4;spacingRight=4;overflow=hidden;points=[[0,0.5],[1,0.5]];portConstraint=eastwest;rotatable=0;whiteSpace=wrap;html=1;fontFamily=Tahoma;fontStyle=0" vertex="1" parent="ldk-vL9nQiYHC8ubjHRn-48">
          <mxGeometry y="60" width="140" height="30" as="geometry" />
        </mxCell>
        <mxCell id="ldk-vL9nQiYHC8ubjHRn-51" value="SentDate" style="text;strokeColor=none;fillColor=none;align=left;verticalAlign=middle;spacingLeft=4;spacingRight=4;overflow=hidden;points=[[0,0.5],[1,0.5]];portConstraint=eastwest;rotatable=0;whiteSpace=wrap;html=1;fontFamily=Tahoma;fontStyle=0" vertex="1" parent="ldk-vL9nQiYHC8ubjHRn-48">
          <mxGeometry y="90" width="140" height="30" as="geometry" />
        </mxCell>
        <mxCell id="ldk-vL9nQiYHC8ubjHRn-52" value="Status" style="text;strokeColor=none;fillColor=none;align=left;verticalAlign=middle;spacingLeft=4;spacingRight=4;overflow=hidden;points=[[0,0.5],[1,0.5]];portConstraint=eastwest;rotatable=0;whiteSpace=wrap;html=1;fontFamily=Tahoma;fontStyle=0" vertex="1" parent="ldk-vL9nQiYHC8ubjHRn-48">
          <mxGeometry y="120" width="140" height="30" as="geometry" />
        </mxCell>
        <mxCell id="ldk-vL9nQiYHC8ubjHRn-75" style="edgeStyle=orthogonalEdgeStyle;rounded=0;orthogonalLoop=1;jettySize=auto;html=1;entryX=0;entryY=0.5;entryDx=0;entryDy=0;startArrow=ERoneToMany;startFill=0;endArrow=ERzeroToOne;endFill=0;" edge="1" parent="1" source="ldk-vL9nQiYHC8ubjHRn-55" target="ldk-vL9nQiYHC8ubjHRn-32">
          <mxGeometry relative="1" as="geometry" />
        </mxCell>
        <mxCell id="ldk-vL9nQiYHC8ubjHRn-83" value="chi tiêu" style="edgeLabel;html=1;align=center;verticalAlign=middle;resizable=0;points=[];" vertex="1" connectable="0" parent="ldk-vL9nQiYHC8ubjHRn-75">
          <mxGeometry x="0.0563" y="-1" relative="1" as="geometry">
            <mxPoint x="10" y="-1" as="offset" />
          </mxGeometry>
        </mxCell>
        <mxCell id="ldk-vL9nQiYHC8ubjHRn-55" value="Transaction" style="swimlane;fontStyle=0;childLayout=stackLayout;horizontal=1;startSize=30;horizontalStack=0;resizeParent=1;resizeParentMax=0;resizeLast=0;collapsible=1;marginBottom=0;whiteSpace=wrap;html=1;fontFamily=Tahoma;" vertex="1" parent="1">
          <mxGeometry x="1040" y="1060" width="140" height="180" as="geometry" />
        </mxCell>
        <mxCell id="ldk-vL9nQiYHC8ubjHRn-56" value="&lt;b&gt;&lt;span&gt;&lt;u&gt;IDTransaction&lt;/u&gt;&lt;/span&gt;&lt;/b&gt;" style="text;strokeColor=none;fillColor=none;align=left;verticalAlign=middle;spacingLeft=4;spacingRight=4;overflow=hidden;points=[[0,0.5],[1,0.5]];portConstraint=eastwest;rotatable=0;whiteSpace=wrap;html=1;fontFamily=Tahoma;fontStyle=0" vertex="1" parent="ldk-vL9nQiYHC8ubjHRn-55">
          <mxGeometry y="30" width="140" height="30" as="geometry" />
        </mxCell>
        <mxCell id="ldk-vL9nQiYHC8ubjHRn-57" value="Amount" style="text;strokeColor=none;fillColor=none;align=left;verticalAlign=middle;spacingLeft=4;spacingRight=4;overflow=hidden;points=[[0,0.5],[1,0.5]];portConstraint=eastwest;rotatable=0;whiteSpace=wrap;html=1;fontFamily=Tahoma;fontStyle=0" vertex="1" parent="ldk-vL9nQiYHC8ubjHRn-55">
          <mxGeometry y="60" width="140" height="30" as="geometry" />
        </mxCell>
        <mxCell id="ldk-vL9nQiYHC8ubjHRn-58" value="Type" style="text;strokeColor=none;fillColor=none;align=left;verticalAlign=middle;spacingLeft=4;spacingRight=4;overflow=hidden;points=[[0,0.5],[1,0.5]];portConstraint=eastwest;rotatable=0;whiteSpace=wrap;html=1;fontFamily=Tahoma;fontStyle=0" vertex="1" parent="ldk-vL9nQiYHC8ubjHRn-55">
          <mxGeometry y="90" width="140" height="30" as="geometry" />
        </mxCell>
        <mxCell id="ldk-vL9nQiYHC8ubjHRn-59" value="TransactionDate" style="text;strokeColor=none;fillColor=none;align=left;verticalAlign=middle;spacingLeft=4;spacingRight=4;overflow=hidden;points=[[0,0.5],[1,0.5]];portConstraint=eastwest;rotatable=0;whiteSpace=wrap;html=1;fontFamily=Tahoma;fontStyle=0" vertex="1" parent="ldk-vL9nQiYHC8ubjHRn-55">
          <mxGeometry y="120" width="140" height="30" as="geometry" />
        </mxCell>
        <mxCell id="ldk-vL9nQiYHC8ubjHRn-60" value="Description" style="text;strokeColor=none;fillColor=none;align=left;verticalAlign=middle;spacingLeft=4;spacingRight=4;overflow=hidden;points=[[0,0.5],[1,0.5]];portConstraint=eastwest;rotatable=0;whiteSpace=wrap;html=1;fontFamily=Tahoma;fontStyle=0" vertex="1" parent="ldk-vL9nQiYHC8ubjHRn-55">
          <mxGeometry y="150" width="140" height="30" as="geometry" />
        </mxCell>
        <mxCell id="ldk-vL9nQiYHC8ubjHRn-62" value="Invoice" style="swimlane;fontStyle=0;childLayout=stackLayout;horizontal=1;startSize=30;horizontalStack=0;resizeParent=1;resizeParentMax=0;resizeLast=0;collapsible=1;marginBottom=0;whiteSpace=wrap;html=1;fontFamily=Tahoma;" vertex="1" parent="1">
          <mxGeometry x="730" y="1060" width="140" height="150" as="geometry" />
        </mxCell>
        <mxCell id="ldk-vL9nQiYHC8ubjHRn-63" value="&lt;b&gt;&lt;span&gt;&lt;u&gt;IDInvoice&lt;/u&gt;&lt;/span&gt;&lt;/b&gt;" style="text;strokeColor=none;fillColor=none;align=left;verticalAlign=middle;spacingLeft=4;spacingRight=4;overflow=hidden;points=[[0,0.5],[1,0.5]];portConstraint=eastwest;rotatable=0;whiteSpace=wrap;html=1;fontFamily=Tahoma;fontStyle=0" vertex="1" parent="ldk-vL9nQiYHC8ubjHRn-62">
          <mxGeometry y="30" width="140" height="30" as="geometry" />
        </mxCell>
        <mxCell id="ldk-vL9nQiYHC8ubjHRn-64" value="PDF_URL" style="text;strokeColor=none;fillColor=none;align=left;verticalAlign=middle;spacingLeft=4;spacingRight=4;overflow=hidden;points=[[0,0.5],[1,0.5]];portConstraint=eastwest;rotatable=0;whiteSpace=wrap;html=1;fontFamily=Tahoma;fontStyle=0" vertex="1" parent="ldk-vL9nQiYHC8ubjHRn-62">
          <mxGeometry y="60" width="140" height="30" as="geometry" />
        </mxCell>
        <mxCell id="ldk-vL9nQiYHC8ubjHRn-65" value="CreateAt" style="text;strokeColor=none;fillColor=none;align=left;verticalAlign=middle;spacingLeft=4;spacingRight=4;overflow=hidden;points=[[0,0.5],[1,0.5]];portConstraint=eastwest;rotatable=0;whiteSpace=wrap;html=1;fontFamily=Tahoma;fontStyle=0" vertex="1" parent="ldk-vL9nQiYHC8ubjHRn-62">
          <mxGeometry y="90" width="140" height="30" as="geometry" />
        </mxCell>
        <mxCell id="ldk-vL9nQiYHC8ubjHRn-66" value="Status" style="text;strokeColor=none;fillColor=none;align=left;verticalAlign=middle;spacingLeft=4;spacingRight=4;overflow=hidden;points=[[0,0.5],[1,0.5]];portConstraint=eastwest;rotatable=0;whiteSpace=wrap;html=1;fontFamily=Tahoma;fontStyle=0" vertex="1" parent="ldk-vL9nQiYHC8ubjHRn-62">
          <mxGeometry y="120" width="140" height="30" as="geometry" />
        </mxCell>
        <mxCell id="ldk-vL9nQiYHC8ubjHRn-69" style="edgeStyle=orthogonalEdgeStyle;rounded=0;orthogonalLoop=1;jettySize=auto;html=1;entryX=0;entryY=0.5;entryDx=0;entryDy=0;endArrow=ERmandOne;endFill=0;startArrow=ERmandOne;startFill=0;" edge="1" parent="1" source="ldk-vL9nQiYHC8ubjHRn-16" target="ldk-vL9nQiYHC8ubjHRn-10">
          <mxGeometry relative="1" as="geometry" />
        </mxCell>
        <mxCell id="ldk-vL9nQiYHC8ubjHRn-88" value="gồm có" style="edgeLabel;html=1;align=center;verticalAlign=middle;resizable=0;points=[];" vertex="1" connectable="0" parent="ldk-vL9nQiYHC8ubjHRn-69">
          <mxGeometry x="-0.0632" y="1" relative="1" as="geometry">
            <mxPoint as="offset" />
          </mxGeometry>
        </mxCell>
        <mxCell id="ldk-vL9nQiYHC8ubjHRn-70" style="edgeStyle=orthogonalEdgeStyle;rounded=0;orthogonalLoop=1;jettySize=auto;html=1;exitX=1;exitY=0.5;exitDx=0;exitDy=0;entryX=0;entryY=0.5;entryDx=0;entryDy=0;startArrow=ERmandOne;startFill=0;endArrow=ERmandOne;endFill=0;" edge="1" parent="1" source="ldk-vL9nQiYHC8ubjHRn-10" target="ldk-vL9nQiYHC8ubjHRn-50">
          <mxGeometry relative="1" as="geometry" />
        </mxCell>
        <mxCell id="ldk-vL9nQiYHC8ubjHRn-86" value="đăng ký" style="edgeLabel;html=1;align=center;verticalAlign=middle;resizable=0;points=[];" vertex="1" connectable="0" parent="ldk-vL9nQiYHC8ubjHRn-70">
          <mxGeometry x="-0.077" y="-1" relative="1" as="geometry">
            <mxPoint as="offset" />
          </mxGeometry>
        </mxCell>
        <mxCell id="ldk-vL9nQiYHC8ubjHRn-71" style="edgeStyle=orthogonalEdgeStyle;rounded=0;orthogonalLoop=1;jettySize=auto;html=1;endArrow=ERzeroToMany;endFill=0;startArrow=ERmandOne;startFill=0;" edge="1" parent="1" source="ldk-vL9nQiYHC8ubjHRn-28" target="ldk-vL9nQiYHC8ubjHRn-35">
          <mxGeometry relative="1" as="geometry" />
        </mxCell>
        <mxCell id="ldk-vL9nQiYHC8ubjHRn-82" value="tổ chức" style="edgeLabel;html=1;align=center;verticalAlign=middle;resizable=0;points=[];" vertex="1" connectable="0" parent="ldk-vL9nQiYHC8ubjHRn-71">
          <mxGeometry x="0.111" y="1" relative="1" as="geometry">
            <mxPoint as="offset" />
          </mxGeometry>
        </mxCell>
        <mxCell id="ldk-vL9nQiYHC8ubjHRn-72" style="edgeStyle=orthogonalEdgeStyle;rounded=0;orthogonalLoop=1;jettySize=auto;html=1;exitX=1;exitY=0.5;exitDx=0;exitDy=0;startArrow=ERmandOne;startFill=0;endArrow=ERmandOne;endFill=0;" edge="1" parent="1" source="ldk-vL9nQiYHC8ubjHRn-64" target="ldk-vL9nQiYHC8ubjHRn-57">
          <mxGeometry relative="1" as="geometry" />
        </mxCell>
        <mxCell id="ldk-vL9nQiYHC8ubjHRn-85" value="bao gồm" style="edgeLabel;html=1;align=center;verticalAlign=middle;resizable=0;points=[];" vertex="1" connectable="0" parent="ldk-vL9nQiYHC8ubjHRn-72">
          <mxGeometry x="-0.1802" y="1" relative="1" as="geometry">
            <mxPoint as="offset" />
          </mxGeometry>
        </mxCell>
        <mxCell id="ldk-vL9nQiYHC8ubjHRn-73" style="edgeStyle=orthogonalEdgeStyle;rounded=0;orthogonalLoop=1;jettySize=auto;html=1;entryX=0;entryY=0.5;entryDx=0;entryDy=0;startArrow=ERoneToMany;startFill=0;endArrow=ERmandOne;endFill=0;" edge="1" parent="1" source="ldk-vL9nQiYHC8ubjHRn-42" target="ldk-vL9nQiYHC8ubjHRn-35">
          <mxGeometry relative="1" as="geometry" />
        </mxCell>
        <mxCell id="ldk-vL9nQiYHC8ubjHRn-90" value="bao gồm" style="edgeLabel;html=1;align=center;verticalAlign=middle;resizable=0;points=[];" vertex="1" connectable="0" parent="ldk-vL9nQiYHC8ubjHRn-73">
          <mxGeometry x="-0.0432" y="1" relative="1" as="geometry">
            <mxPoint as="offset" />
          </mxGeometry>
        </mxCell>
        <mxCell id="ldk-vL9nQiYHC8ubjHRn-74" style="edgeStyle=orthogonalEdgeStyle;rounded=0;orthogonalLoop=1;jettySize=auto;html=1;entryX=0.5;entryY=0;entryDx=0;entryDy=0;startArrow=ERoneToMany;startFill=0;endArrow=ERzeroToOne;endFill=0;" edge="1" parent="1" source="ldk-vL9nQiYHC8ubjHRn-13" target="ldk-vL9nQiYHC8ubjHRn-40">
          <mxGeometry relative="1" as="geometry" />
        </mxCell>
        <mxCell id="ldk-vL9nQiYHC8ubjHRn-87" value="đăng ký" style="edgeLabel;html=1;align=center;verticalAlign=middle;resizable=0;points=[];" vertex="1" connectable="0" parent="ldk-vL9nQiYHC8ubjHRn-74">
          <mxGeometry x="-0.0121" y="1" relative="1" as="geometry">
            <mxPoint as="offset" />
          </mxGeometry>
        </mxCell>
        <mxCell id="ldk-vL9nQiYHC8ubjHRn-76" style="edgeStyle=orthogonalEdgeStyle;rounded=0;orthogonalLoop=1;jettySize=auto;html=1;entryX=0;entryY=0.5;entryDx=0;entryDy=0;exitX=0.504;exitY=1.013;exitDx=0;exitDy=0;exitPerimeter=0;endArrow=ERmandOne;endFill=0;startArrow=ERoneToMany;startFill=0;" edge="1" parent="1" source="ldk-vL9nQiYHC8ubjHRn-21" target="ldk-vL9nQiYHC8ubjHRn-42">
          <mxGeometry relative="1" as="geometry" />
        </mxCell>
        <mxCell id="ldk-vL9nQiYHC8ubjHRn-89" value="tham gia" style="edgeLabel;html=1;align=center;verticalAlign=middle;resizable=0;points=[];" vertex="1" connectable="0" parent="ldk-vL9nQiYHC8ubjHRn-76">
          <mxGeometry x="-0.3111" y="-2" relative="1" as="geometry">
            <mxPoint as="offset" />
          </mxGeometry>
        </mxCell>
        <mxCell id="ldk-vL9nQiYHC8ubjHRn-78" style="edgeStyle=orthogonalEdgeStyle;rounded=0;orthogonalLoop=1;jettySize=auto;html=1;exitX=0;exitY=0.5;exitDx=0;exitDy=0;endArrow=ERzeroToOne;endFill=0;startArrow=ERmandOne;startFill=0;" edge="1" parent="1" source="ldk-vL9nQiYHC8ubjHRn-56">
          <mxGeometry relative="1" as="geometry">
            <mxPoint x="960" y="1000" as="targetPoint" />
            <Array as="points">
              <mxPoint x="960" y="1105" />
              <mxPoint x="960" y="1000" />
            </Array>
          </mxGeometry>
        </mxCell>
        <mxCell id="ldk-vL9nQiYHC8ubjHRn-84" value="chi tiêu" style="edgeLabel;html=1;align=center;verticalAlign=middle;resizable=0;points=[];" vertex="1" connectable="0" parent="ldk-vL9nQiYHC8ubjHRn-78">
          <mxGeometry x="0.3321" y="-3" relative="1" as="geometry">
            <mxPoint y="-2" as="offset" />
          </mxGeometry>
        </mxCell>
      </root>
    </mxGraphModel>
  </diagram>
</mxfile>
